<svg width="937" height="176" xmlns="http://www.w3.org/2000/svg" xmlns:xlink="http://www.w3.org/1999/xlink" overflow="hidden"><defs><filter id="fx0" x="-10%" y="-10%" width="120%" height="120%" filterUnits="userSpaceOnUse" primitiveUnits="userSpaceOnUse"><feComponentTransfer color-interpolation-filters="sRGB"><feFuncR type="discrete" tableValues="0 0"/><feFuncG type="discrete" tableValues="0 0"/><feFuncB type="discrete" tableValues="0 0"/><feFuncA type="linear" slope="0.4" intercept="0"/></feComponentTransfer><feGaussianBlur stdDeviation="1.16167 1.16167"/></filter><filter id="fx1" x="-10%" y="-10%" width="120%" height="120%" filterUnits="userSpaceOnUse" primitiveUnits="userSpaceOnUse"><feComponentTransfer color-interpolation-filters="sRGB"><feFuncR type="discrete" tableValues="0 0"/><feFuncG type="discrete" tableValues="0 0"/><feFuncB type="discrete" tableValues="0 0"/><feFuncA type="linear" slope="0.4" intercept="0"/></feComponentTransfer><feGaussianBlur stdDeviation="1.16167 1.16167"/></filter><filter id="fx2" x="-10%" y="-10%" width="120%" height="120%" filterUnits="userSpaceOnUse" primitiveUnits="userSpaceOnUse"><feComponentTransfer color-interpolation-filters="sRGB"><feFuncR type="discrete" tableValues="0 0"/><feFuncG type="discrete" tableValues="0 0"/><feFuncB type="discrete" tableValues="0 0"/><feFuncA type="linear" slope="0.4" intercept="0"/></feComponentTransfer><feGaussianBlur stdDeviation="1.16167 1.16167"/></filter><clipPath id="clip3"><rect x="47" y="166" width="937" height="176"/></clipPath><clipPath id="clip4"><rect x="53" y="43" width="402" height="68"/></clipPath><clipPath id="clip5"><rect x="0" y="0" width="527" height="178"/></clipPath><clipPath id="clip6"><rect x="54" y="79" width="50" height="11"/></clipPath><clipPath id="clip7"><rect x="0" y="0" width="158" height="178"/></clipPath><clipPath id="clip8"><rect x="51" y="43" width="342" height="83"/></clipPath><clipPath id="clip9"><rect x="0" y="0" width="444" height="178"/></clipPath></defs><g clip-path="url(#clip3)" transform="translate(-47 -166)"><g clip-path="url(#clip4)" filter="url(#fx0)" transform="translate(48 165)"><g clip-path="url(#clip5)"><path d="M56.9141-27.3828C56.9141-22.6693 56.0286-18.5807 54.2578-15.1172 52.487-11.6536 50.1823-8.8151 47.3438-6.60156 44.4792-4.38802 41.263-2.73437 37.6953-1.64062 34.1276-0.546875 30.4427 0 26.6406 0L3.67188 0 3.67188-2.77344C4.42708-2.77344 5.41016-2.84505 6.62109-2.98828 7.83203-3.13151 8.63281-3.29427 9.02344-3.47656 9.80469-3.8151 10.3711-4.31641 10.7227-4.98047 11.0742-5.64453 11.25-6.44531 11.25-7.38281L11.25-47.3828C11.25-48.2682 11.1003-49.0625 10.8008-49.7656 10.5013-50.4688 9.90885-51.0286 9.02344-51.4453 8.21615-51.8359 7.34375-52.1224 6.40625-52.3047 5.46875-52.487 4.66146-52.6042 3.98438-52.6562L3.98438-55.4297 28.2031-55.4297C31.5365-55.4297 34.8177-54.9154 38.0469-53.8867 41.276-52.8581 44.0885-51.4714 46.4844-49.7266 49.7396-47.4089 52.2917-44.375 54.1406-40.625 55.9896-36.875 56.9141-32.4609 56.9141-27.3828ZM47.3438-27.4023C47.3438-31.1235 46.849-34.4867 45.8594-37.4921 44.8698-40.4974 43.4245-43.1191 41.5234-45.3571 39.7266-47.4908 37.5195-49.1692 34.9023-50.3922 32.2852-51.6151 29.375-52.2266 26.1719-52.2266 25.1042-52.2266 23.8997-52.207 22.5586-52.168 21.2174-52.1289 20.2214-52.0964 19.5703-52.0703L19.5703-9.4873C19.5703-7.11914 20.2604-5.47974 21.6406-4.56909 23.0208-3.65845 25.1432-3.20312 28.0078-3.20312 31.3151-3.20312 34.2057-3.78855 36.6797-4.95941 39.1536-6.13027 41.1589-7.75655 42.6953-9.83826 44.3099-12.0241 45.4883-14.5547 46.2305-17.4301 46.9727-20.3055 47.3438-23.6296 47.3438-27.4023ZM115.508 0 92.4677 0 92.4677-2.77344C94.4989-2.90365 96.185-3.16406 97.5259-3.55469 98.8669-3.94531 99.5374-4.42708 99.5374-5 99.5374-5.23438 99.5113-5.52083 99.4592-5.85938 99.4071-6.19792 99.3292-6.4974 99.2255-6.75781L94.6344-19.1797 75.177-19.1797C74.447-17.3568 73.8538-15.7682 73.3972-14.4141 72.9407-13.0599 72.5299-11.8099 72.1649-10.6641 71.826-9.54427 71.5913-8.63281 71.4609-7.92969 71.3305-7.22656 71.2653-6.65365 71.2653-6.21094 71.2653-5.16927 72.0857-4.36198 73.7265-3.78906 75.3673-3.21615 77.2164-2.8776 79.2737-2.77344L79.2737 0 58.3984 0 58.3984-2.77344C59.0755-2.82552 59.9219-2.97526 60.9375-3.22266 61.9531-3.47005 62.7865-3.80208 63.4375-4.21875 64.4792-4.92188 65.2865-5.65755 65.8594-6.42578 66.4323-7.19401 66.9922-8.25521 67.5391-9.60938 70.3255-16.5625 73.3984-24.375 76.7578-33.0469 80.1172-41.7188 83.112-49.4401 85.7422-56.2109L88.8672-56.2109 107.344-8.39844C107.734-7.38281 108.177-6.5625 108.672-5.9375 109.167-5.3125 109.857-4.70052 110.742-4.10156 111.341-3.73698 112.122-3.43099 113.086-3.18359 114.049-2.9362 114.857-2.79948 115.508-2.77344ZM93.2074-22.6562 84.8114-44.1663 76.5356-22.6562ZM141.714 0 116.753 0 116.753-2.77344C117.456-2.82552 118.471-2.90365 119.799-3.00781 121.128-3.11198 122.065-3.26823 122.612-3.47656 123.471-3.8151 124.096-4.27734 124.487-4.86328 124.878-5.44922 125.073-6.26302 125.073-7.30469L125.073-47.4609C125.073-48.3724 124.93-49.1341 124.643-49.7461 124.357-50.3581 123.68-50.8724 122.612-51.2891 121.831-51.6016 120.848-51.8945 119.663-52.168 118.478-52.4414 117.508-52.6042 116.753-52.6562L116.753-55.4297 141.714-55.4297 141.714-52.6562C140.906-52.6302 139.943-52.5325 138.823-52.3633 137.703-52.194 136.727-51.9792 135.893-51.7188 134.904-51.4062 134.24-50.8984 133.901-50.1953 133.562-49.4922 133.393-48.7109 133.393-47.8516L133.393-7.73438C133.393-6.875 133.582-6.11328 133.96-5.44922 134.337-4.78516 134.982-4.25781 135.893-3.86719 136.44-3.65885 137.332-3.43099 138.569-3.18359 139.806-2.9362 140.854-2.79948 141.714-2.77344ZM183.154-25.4297C184.326-24.1276 185.191-22.7018 185.751-21.1523 186.311-19.6029 186.591-17.7995 186.591-15.7422 186.591-10.8464 184.781-6.8099 181.161-3.63281 177.542-0.455729 173.049 1.13281 167.685 1.13281 165.211 1.13281 162.737 0.748698 160.263-0.0195312 157.789-0.78776 155.654-1.71875 153.857-2.8125L152.177 0.0390625 149.052 0.0390625 148.505-18.9453 151.669-18.9453C152.32-16.6016 153.082-14.4857 153.954-12.5977 154.827-10.7096 155.979-8.94531 157.411-7.30469 158.766-5.76823 160.348-4.54427 162.158-3.63281 163.967-2.72135 166.07-2.26562 168.466-2.26562 170.263-2.26562 171.832-2.50031 173.173-2.96967 174.514-3.43903 175.602-4.104 176.435-4.9646 177.268-5.8252 177.887-6.83573 178.29-7.99622 178.694-9.1567 178.896-10.4932 178.896-12.0056 178.896-14.222 178.271-16.2886 177.021-18.2053 175.771-20.122 173.909-21.5757 171.435-22.5665 169.742-23.2408 167.802-23.9863 165.615-24.8032 163.427-25.62 161.539-26.3916 159.951-27.1179 156.826-28.5238 154.397-30.3657 152.665-32.6437 150.934-34.9218 150.068-37.8961 150.068-41.5668 150.068-43.6757 150.497-45.6414 151.357-47.4637 152.216-49.286 153.44-50.9131 155.029-52.345 156.539-53.6987 158.323-54.7596 160.38-55.5276 162.438-56.2957 164.586-56.6797 166.826-56.6797 169.378-56.6797 171.663-56.2891 173.681-55.5078 175.699-54.7266 177.542-53.8151 179.208-52.7734L180.81-55.4297 183.935-55.4297 184.247-37.0312 181.083-37.0312C180.51-39.1406 179.866-41.1589 179.15-43.0859 178.434-45.013 177.503-46.7578 176.357-48.3203 175.237-49.8307 173.87-51.0352 172.255-51.9336 170.641-52.832 168.661-53.2812 166.318-53.2812 163.844-53.2812 161.734-52.487 159.99-50.8984 158.245-49.3099 157.372-47.3698 157.372-45.0781 157.372-42.6823 157.932-40.6966 159.052-39.1211 160.172-37.5456 161.799-36.25 163.935-35.2344 165.836-34.3229 167.704-33.5352 169.54-32.8711 171.376-32.207 173.154-31.4974 174.872-30.7422 176.435-30.0651 177.939-29.2969 179.384-28.4375 180.829-27.5781 182.086-26.5755 183.154-25.4297ZM238.26-48.8672C240.708-46.3151 242.622-43.2357 244.003-39.6289 245.383-36.0221 246.073-32.0312 246.073-27.6562 246.073-23.2552 245.37-19.2578 243.964-15.6641 242.557-12.0703 240.604-9.01042 238.104-6.48438 235.682-3.98438 232.87-2.05729 229.667-0.703125 226.464 0.651042 223.052 1.32812 219.432 1.32812 215.578 1.32812 212.017 0.605469 208.749-0.839844 205.48-2.28516 202.674-4.29688 200.331-6.875 197.987-9.40104 196.145-12.4674 194.803-16.0742 193.462-19.681 192.792-23.5417 192.792-27.6562 192.792-32.1615 193.495-36.1784 194.901-39.707 196.307-43.2357 198.247-46.2891 200.721-48.8672 203.169-51.4193 206.014-53.3724 209.257-54.7266 212.499-56.0807 215.891-56.7578 219.432-56.7578 223.104-56.7578 226.568-56.0677 229.823-54.6875 233.078-53.3073 235.891-51.3672 238.26-48.8672ZM232.44-9.57031C233.898-11.9401 234.96-14.6224 235.624-17.6172 236.288-20.612 236.62-23.9583 236.62-27.6562 236.62-31.4583 236.249-34.9479 235.507-38.125 234.764-41.3021 233.677-44.0104 232.245-46.25 230.812-48.4635 229.016-50.1888 226.854-51.4258 224.693-52.6628 222.219-53.2812 219.432-53.2812 216.307-53.2812 213.651-52.5651 211.464-51.1328 209.276-49.7005 207.492-47.7865 206.112-45.3906 204.81-43.099 203.84-40.4167 203.202-37.3438 202.564-34.2708 202.245-31.0417 202.245-27.6562 202.245-23.9062 202.583-20.5208 203.26-17.5 203.938-14.4792 205.005-11.7969 206.464-9.45312 207.87-7.16146 209.641-5.37109 211.776-4.08203 213.911-2.79297 216.464-2.14844 219.432-2.14844 222.219-2.14844 224.732-2.79948 226.971-4.10156 229.211-5.40365 231.034-7.22656 232.44-9.57031ZM316.82-16.4844 315.648 0 272.328 0 272.328-2.77344C272.953-2.82552 273.858-2.91667 275.043-3.04688 276.228-3.17708 277.055-3.34635 277.523-3.55469 278.305-3.89323 278.871-4.38802 279.223-5.03906 279.574-5.6901 279.75-6.52344 279.75-7.53906L279.75-47.2266C279.75-48.112 279.6-48.8932 279.301-49.5703 279.001-50.2474 278.409-50.7943 277.523-51.2109 276.924-51.5234 276.085-51.8294 275.004-52.1289 273.923-52.4284 273.031-52.6042 272.328-52.6562L272.328-55.4297 295.727-55.4297 295.727-52.6562C294.997-52.6302 294.053-52.5 292.895-52.2656 291.736-52.0312 290.896-51.8229 290.375-51.6406 289.49-51.3281 288.884-50.7943 288.559-50.0391 288.233-49.2839 288.07-48.4766 288.07-47.6172L288.07-10.3906C288.07-8.67188 288.155-7.33724 288.324-6.38672 288.493-5.4362 288.891-4.70052 289.516-4.17969 290.115-3.71094 291.007-3.40495 292.191-3.26172 293.376-3.11849 295.036-3.04687 297.172-3.04688 298.135-3.04687 299.138-3.07292 300.18-3.125 301.221-3.17708 302.211-3.28125 303.148-3.4375 304.06-3.59375 304.9-3.80859 305.668-4.08203 306.436-4.35547 307.003-4.70052 307.367-5.11719 308.435-6.3151 309.678-8.13151 311.098-10.5664 312.517-13.0013 313.5-14.974 314.047-16.4844ZM356.13-0.703125C354.906-0.260417 353.832 0.0976563 352.908 0.371094 351.983 0.644531 350.935 0.78125 349.763 0.78125 347.732 0.78125 346.111 0.30599 344.9-0.644531 343.689-1.59505 342.914-2.98177 342.576-4.80469L342.341-4.80469C340.648-2.92969 338.832-1.4974 336.892-0.507812 334.952 0.481771 332.615 0.976562 329.88 0.976562 326.99 0.976562 324.613 0.0911458 322.751-1.67969 320.889-3.45052 319.958-5.76823 319.958-8.63281 319.958-10.1172 320.167-11.4453 320.583-12.6172 321-13.7891 321.625-14.8438 322.458-15.7812 323.109-16.5625 323.969-17.2591 325.036-17.8711 326.104-18.4831 327.107-18.9714 328.044-19.3359 329.216-19.7786 331.592-20.599 335.173-21.7969 338.754-22.9948 341.169-23.9323 342.419-24.6094L342.419-28.4766C342.419-28.8151 342.348-29.4661 342.204-30.4297 342.061-31.3932 341.755-32.3047 341.286-33.1641 340.766-34.1276 340.03-34.9674 339.079-35.6836 338.129-36.3997 336.781-36.7578 335.036-36.7578 333.839-36.7578 332.725-36.556 331.697-36.1523 330.668-35.7487 329.945-35.3255 329.529-34.8828 329.529-34.362 329.652-33.5938 329.9-32.5781 330.147-31.5625 330.271-30.625 330.271-29.7656 330.271-28.8542 329.861-28.0208 329.04-27.2656 328.22-26.5104 327.081-26.1328 325.622-26.1328 324.32-26.1328 323.363-26.5951 322.751-27.5195 322.139-28.444 321.833-29.4792 321.833-30.625 321.833-31.8229 322.257-32.9688 323.103-34.0625 323.949-35.1562 325.049-36.1328 326.404-36.9922 327.576-37.7214 328.995-38.3398 330.661-38.8477 332.328-39.3555 333.956-39.6094 335.544-39.6094 337.732-39.6094 339.639-39.4596 341.267-39.1602 342.895-38.8607 344.372-38.2161 345.701-37.2266 347.029-36.263 348.038-34.9544 348.728-33.3008 349.418-31.6471 349.763-29.5182 349.763-26.9141 349.763-23.1901 349.724-19.8893 349.646-17.0117 349.568-14.1341 349.529-10.9896 349.529-7.57812 349.529-6.5625 349.704-5.75521 350.056-5.15625 350.408-4.55729 350.948-4.04948 351.677-3.63281 352.068-3.39844 352.686-3.26823 353.533-3.24219 354.379-3.21615 355.245-3.20312 356.13-3.20312ZM342.497-21.3281C340.284-20.6759 338.344-20.0365 336.677-19.4101 335.01-18.7837 333.461-18.0007 332.029-17.0612 330.727-16.1737 329.698-15.1232 328.943-13.9096 328.188-12.696 327.81-11.2541 327.81-9.58374 327.81-7.41781 328.376-5.82591 329.509-4.80804 330.642-3.79018 332.081-3.28125 333.826-3.28125 335.674-3.28125 337.302-3.73149 338.708-4.63196 340.115-5.53243 341.299-6.59587 342.263-7.82227ZM399.081-19.2969C399.081-13.5156 397.258-8.65885 393.612-4.72656 389.966-0.794271 385.734 1.17188 380.917 1.17188 378.807 1.17188 376.73 0.846354 374.686 0.195312 372.642-0.455729 370.721-1.32812 368.925-2.42188L366.034 2.07031 363.612 1.52283C363.742-0.405477 363.833-2.72471 363.885-5.43488 363.938-8.14504 363.964-10.764 363.964-13.2916L363.964-51.4417C363.964-52.3275 363.762-53.2134 363.358-54.0994 362.954-54.9855 362.44-55.624 361.815-56.015 361.32-56.3536 360.494-56.6076 359.335-56.777 358.176-56.9465 357.245-57.0573 356.542-57.1094L356.542-59.6094 370.682-60.4688 371.229-59.8828 371.229-34.4922 371.503-34.4141C373.117-36.1328 374.882-37.4219 376.796-38.2812 378.71-39.1406 380.591-39.5703 382.44-39.5703 387.18-39.5703 391.138-37.6953 394.315-33.9453 397.492-30.1953 399.081-25.3125 399.081-19.2969ZM390.917-19.0234C390.917-20.9505 390.708-22.9167 390.292-24.9219 389.875-26.9271 389.224-28.6719 388.339-30.1562 387.453-31.6667 386.294-32.8906 384.862-33.8281 383.43-34.7656 381.711-35.2344 379.706-35.2344 377.883-35.2344 376.288-34.8763 374.921-34.1602 373.553-33.444 372.323-32.474 371.229-31.25L371.229-8.82812C371.385-8.20312 371.691-7.47396 372.147-6.64062 372.603-5.80729 373.221-5.01302 374.003-4.25781 374.784-3.52865 375.669-2.9362 376.659-2.48047 377.648-2.02474 378.859-1.79688 380.292-1.79688 383.469-1.79688 386.034-3.33333 387.987-6.40625 389.94-9.47917 390.917-13.6849 390.917-19.0234Z" fill="#FFFFFF" transform="translate(52.7452 106)"/></g></g><text fill="#FFFFFF" font-family="Georgia,Georgia_MSFontService,sans-serif" font-weight="400" font-size="80" transform="translate(99.4929 270)">DAISO Lab </text><g clip-path="url(#clip6)" filter="url(#fx1)" transform="translate(469 165)"><g clip-path="url(#clip7)"><path d="M47.4609-19.4141 3.98438-19.4141 3.98438-24.2969 47.4609-24.2969Z" fill="#FFFFFF" transform="translate(53.0786 106)"/></g></g><text fill="#FFFFFF" font-family="Georgia,Georgia_MSFontService,sans-serif" font-weight="400" font-size="80" transform="translate(520.826 270)">–</text><g clip-path="url(#clip8)" filter="url(#fx2)" transform="translate(540 165)"><g clip-path="url(#clip9)"><path d="M70.5469 0 46.0547 0 46.0547-2.77344C46.9401-2.79948 48.0794-2.89062 49.4727-3.04688 50.8659-3.20312 51.8229-3.42448 52.3438-3.71094 53.151-4.20573 53.7435-4.77214 54.1211-5.41016 54.4987-6.04818 54.6875-6.84896 54.6875-7.8125L54.6875-48.125 54.1016-48.125 35.1953-0.898438 33.2422-0.898438 15.2344-49.1016 14.7266-49.1016 14.7266-16.0156C14.7266-12.8125 14.9284-10.3776 15.332-8.71094 15.7357-7.04427 16.3542-5.84635 17.1875-5.11719 17.7604-4.57031 18.9453-4.04948 20.7422-3.55469 22.5391-3.0599 23.7109-2.79948 24.2578-2.77344L24.2578 0 1.875 0 1.875-2.77344C3.04687-2.8776 4.27734-3.07292 5.56641-3.35938 6.85547-3.64583 7.85156-4.07552 8.55469-4.64844 9.46615-5.3776 10.0911-6.4974 10.4297-8.00781 10.7682-9.51823 10.9375-12.0443 10.9375-15.5859L10.9375-43.9453C10.9375-45.5859 10.7422-46.9271 10.3516-47.9688 9.96094-49.0104 9.40104-49.8568 8.67188-50.5078 7.86458-51.2109 6.875-51.7318 5.70312-52.0703 4.53125-52.4089 3.3724-52.6042 2.22656-52.6562L2.22656-55.4297 21.1261-55.4297 37.0038-13.8239 50.5585-48.6285C51.0529-49.9054 51.4757-51.2408 51.8271-52.6349 52.1784-54.0289 52.3671-54.9605 52.3932-55.4297L70.4688-55.4297 70.4688-52.6562C69.7396-52.6302 68.8086-52.513 67.6758-52.3047 66.543-52.0964 65.7161-51.901 65.1953-51.7188 64.3099-51.4062 63.7109-50.8854 63.3984-50.1562 63.0859-49.4271 62.9297-48.6328 62.9297-47.7734L62.9297-7.8125C62.9297-6.90104 63.0859-6.13281 63.3984-5.50781 63.7109-4.88281 64.3099-4.33594 65.1953-3.86719 65.6641-3.60677 66.4974-3.36589 67.6953-3.14453 68.8932-2.92318 69.8438-2.79948 70.5469-2.77344ZM113.464-0.703125C112.24-0.260417 111.165 0.0976563 110.241 0.371094 109.316 0.644531 108.268 0.78125 107.096 0.78125 105.065 0.78125 103.444 0.30599 102.233-0.644531 101.022-1.59505 100.247-2.98177 99.9089-4.80469L99.6745-4.80469C97.9818-2.92969 96.1654-1.4974 94.2253-0.507812 92.2852 0.481771 89.9479 0.976562 87.2135 0.976562 84.3229 0.976562 81.9466 0.0911458 80.0846-1.67969 78.2227-3.45052 77.2917-5.76823 77.2917-8.63281 77.2917-10.1172 77.5-11.4453 77.9167-12.6172 78.3333-13.7891 78.9583-14.8438 79.7917-15.7812 80.4427-16.5625 81.3021-17.2591 82.3698-17.8711 83.4375-18.4831 84.4401-18.9714 85.3776-19.3359 86.5495-19.7786 88.9258-20.599 92.5065-21.7969 96.0872-22.9948 98.5026-23.9323 99.7526-24.6094L99.7526-28.4766C99.7526-28.8151 99.681-29.4661 99.5378-30.4297 99.3945-31.3932 99.0885-32.3047 98.6198-33.1641 98.099-34.1276 97.3633-34.9674 96.4128-35.6836 95.4622-36.3997 94.1146-36.7578 92.3698-36.7578 91.1719-36.7578 90.0586-36.556 89.03-36.1523 88.0013-35.7487 87.2786-35.3255 86.862-34.8828 86.862-34.362 86.9857-33.5938 87.2331-32.5781 87.4805-31.5625 87.6042-30.625 87.6042-29.7656 87.6042-28.8542 87.194-28.0208 86.3737-27.2656 85.5534-26.5104 84.4141-26.1328 82.9557-26.1328 81.6536-26.1328 80.6966-26.5951 80.0846-27.5195 79.4727-28.444 79.1667-29.4792 79.1667-30.625 79.1667-31.8229 79.5898-32.9688 80.4362-34.0625 81.2826-35.1562 82.3828-36.1328 83.737-36.9922 84.9089-37.7214 86.3281-38.3398 87.9948-38.8477 89.6615-39.3555 91.2891-39.6094 92.8776-39.6094 95.0651-39.6094 96.9727-39.4596 98.6003-39.1602 100.228-38.8607 101.706-38.2161 103.034-37.2266 104.362-36.263 105.371-34.9544 106.061-33.3008 106.751-31.6471 107.096-29.5182 107.096-26.9141 107.096-23.1901 107.057-19.8893 106.979-17.0117 106.901-14.1341 106.862-10.9896 106.862-7.57812 106.862-6.5625 107.038-5.75521 107.389-5.15625 107.741-4.55729 108.281-4.04948 109.01-3.63281 109.401-3.39844 110.02-3.26823 110.866-3.24219 111.712-3.21615 112.578-3.20312 113.464-3.20312ZM99.8307-21.3281C97.6172-20.6759 95.6771-20.0365 94.0104-19.4101 92.3438-18.7837 90.7943-18.0007 89.362-17.0612 88.0599-16.1737 87.0312-15.1232 86.276-13.9096 85.5208-12.696 85.1432-11.2541 85.1432-9.58374 85.1432-7.41781 85.7096-5.82591 86.8425-4.80804 87.9753-3.79018 89.4141-3.28125 91.1589-3.28125 93.0078-3.28125 94.6354-3.73149 96.0417-4.63196 97.4479-5.53243 98.6328-6.59587 99.5964-7.82227ZM159.852 0 141.023 0 141.023-2.57812C141.622-2.63021 142.28-2.68229 142.996-2.73438 143.712-2.78646 144.305-2.89062 144.773-3.04688 145.503-3.28125 146.043-3.69141 146.395-4.27734 146.746-4.86328 146.922-5.625 146.922-6.5625L146.922-26.3672C146.922-29.1016 146.276-31.2109 144.984-32.6953 143.692-34.1797 142.119-34.9219 140.265-34.9219 138.882-34.9219 137.616-34.707 136.467-34.2773 135.319-33.8477 134.301-33.3203 133.414-32.6953 132.552-32.0964 131.867-31.4518 131.358-30.7617 130.849-30.0716 130.477-29.5182 130.242-29.1016L130.242-6.95312C130.242-6.06771 130.424-5.33854 130.789-4.76562 131.154-4.19271 131.701-3.75 132.43-3.4375 132.977-3.17708 133.569-2.98177 134.207-2.85156 134.845-2.72135 135.503-2.63021 136.18-2.57812L136.18 0 117.313 0 117.313-2.57812C117.911-2.63021 118.53-2.68229 119.168-2.73438 119.806-2.78646 120.359-2.89042 120.828-3.04626 121.557-3.28023 122.098-3.68988 122.449-4.27521 122.801-4.86053 122.977-5.62134 122.977-6.55762L122.977-30.3186C122.977-31.2032 122.788-32.0161 122.41-32.7573 122.033-33.4984 121.505-34.1032 120.828-34.5715 120.333-34.8836 119.747-35.1112 119.07-35.2542 118.393-35.3972 117.664-35.4948 116.883-35.5469L116.883-38.125 129.695-38.9844 130.242-38.4375 130.242-33.0078 130.438-33.0078C131.062-33.6328 131.844-34.3815 132.781-35.2539 133.719-36.1263 134.604-36.8359 135.438-37.3828 136.401-38.0078 137.547-38.5286 138.875-38.9453 140.203-39.362 141.701-39.5703 143.367-39.5703 147.065-39.5703 149.806-38.418 151.59-36.1133 153.374-33.8086 154.266-30.7422 154.266-26.9141L154.266-6.875C154.266-5.96354 154.422-5.22786 154.734-4.66797 155.047-4.10807 155.581-3.67188 156.336-3.35938 156.961-3.09896 157.501-2.91667 157.957-2.8125 158.413-2.70833 159.044-2.63021 159.852-2.57812ZM161.716 12.5781C161.716 11.276 162.074 10.2148 162.79 9.39453 163.506 8.57422 164.398 8.16406 165.466 8.16406 166.298 8.16406 167.014 8.31909 167.613 8.62915 168.212 8.93921 168.746 9.3396 169.215 9.83032 169.605 10.2181 170.022 10.7479 170.464 11.4197 170.907 12.0915 171.259 12.6469 171.519 13.0859 172.821 12.3844 174.376 10.5526 176.186 7.59033 177.995 4.62809 179.304 2.02962 180.111-0.205078 177.638-6.37492 175.399-11.894 173.394-16.7624 171.389-21.6308 169.293-26.6683 167.107-31.875 166.612-33.0729 165.779-34.0039 164.607-34.668 163.435-35.332 162.263-35.7552 161.091-35.9375L161.091-38.5156 178.677-38.5156 178.677-35.7812C177.895-35.7552 176.958-35.5925 175.864-35.2933 174.77-34.994 174.223-34.6493 174.223-34.259 174.223-34.1032 174.282-33.8431 174.399-33.4787 174.516-33.1143 174.653-32.737 174.809-32.3468 175.796-29.7707 177.302-26.0562 179.328-21.2033 181.354-16.3504 182.925-12.4668 184.042-9.55261 185.215-12.3366 186.434-15.2184 187.698-18.1979 188.963-21.1775 190.377-24.6967 191.941-28.7555 192.124-29.2499 192.385-29.933 192.724-30.8047 193.063-31.6765 193.232-32.4247 193.232-33.0493 193.232-33.726 192.64-34.357 191.455-34.9423 190.27-35.5276 189.144-35.8854 188.076-36.0156L188.076-38.5156 202.38-38.5156 202.38-36.0938C201.599-35.9635 200.57-35.5143 199.294-34.7461 198.018-33.9779 197.068-32.8906 196.443-31.4844 193.344-24.2969 190.59-17.7474 188.181-11.8359 185.772-5.92448 183.943-1.57552 182.693 1.21094 181.052 4.85677 179.587 7.70182 178.298 9.74609 177.009 11.7904 175.753 13.3984 174.529 14.5703 173.331 15.6641 172.243 16.3997 171.267 16.7773 170.29 17.1549 169.281 17.3438 168.24 17.3438 166.208 17.3438 164.613 16.862 163.454 15.8984 162.296 14.9349 161.716 13.8281 161.716 12.5781ZM245.268-0.703125 232.692 0.15625 232.104-0.390625 232.104-5.27344 231.87-5.27344C231.246-4.6224 230.544-3.92578 229.764-3.18359 228.985-2.44141 228.088-1.77083 227.074-1.17188 225.903-0.46875 224.772 0.0651042 223.68 0.429688 222.589 0.794271 221.042 0.976562 219.04 0.976562 215.634 0.976562 213.041-0.135498 211.26-2.35962 209.479-4.58374 208.589-7.81596 208.589-12.0563L208.589-30.4742C208.589-31.4105 208.412-32.1974 208.058-32.8348 207.704-33.4722 207.186-34.0251 206.505-34.4934 206.033-34.8055 205.444-35.0331 204.736-35.1761 204.028-35.3191 203.281-35.4167 202.495-35.4688L202.495-38.0469 215.346-38.9844 215.932-38.4375 215.932-11.6797C215.932-8.89323 216.557-6.79687 217.807-5.39062 219.057-3.98437 220.555-3.28125 222.299-3.28125 223.732-3.28125 225.008-3.5023 226.128-3.9444 227.247-4.38649 228.185-4.90682 228.94-5.50537 229.643-6.05143 230.262-6.63004 230.796-7.24121 231.329-7.85238 231.74-8.41817 232.026-8.9386L232.026-30.7477C232.026-31.6062 231.844-32.3671 231.479-33.0304 231.115-33.6936 230.607-34.2592 229.956-34.7272 229.487-35.0397 228.79-35.2284 227.866-35.2933 226.941-35.3582 225.906-35.4167 224.76-35.4688L224.76-38.0469 238.782-38.9844 239.37-38.4381 239.37-7.88574C239.37-7.00114 239.552-6.24664 239.917-5.62225 240.281-4.99786 240.789-4.46472 241.44-4.02283 241.909-3.73637 242.469-3.54767 243.12-3.45673 243.771-3.36578 244.487-3.30729 245.268-3.28125ZM314.82-16.4844 313.648 0 270.328 0 270.328-2.77344C270.953-2.82552 271.858-2.91667 273.043-3.04688 274.228-3.17708 275.055-3.34635 275.523-3.55469 276.305-3.89323 276.871-4.38802 277.223-5.03906 277.574-5.6901 277.75-6.52344 277.75-7.53906L277.75-47.2266C277.75-48.112 277.6-48.8932 277.301-49.5703 277.001-50.2474 276.409-50.7943 275.523-51.2109 274.924-51.5234 274.085-51.8294 273.004-52.1289 271.923-52.4284 271.031-52.6042 270.328-52.6562L270.328-55.4297 293.727-55.4297 293.727-52.6562C292.997-52.6302 292.053-52.5 290.895-52.2656 289.736-52.0312 288.896-51.8229 288.375-51.6406 287.49-51.3281 286.884-50.7943 286.559-50.0391 286.233-49.2839 286.07-48.4766 286.07-47.6172L286.07-10.3906C286.07-8.67188 286.155-7.33724 286.324-6.38672 286.494-5.4362 286.891-4.70052 287.516-4.17969 288.115-3.71094 289.007-3.40495 290.191-3.26172 291.376-3.11849 293.036-3.04687 295.172-3.04688 296.135-3.04687 297.138-3.07292 298.18-3.125 299.221-3.17708 300.211-3.28125 301.148-3.4375 302.06-3.59375 302.9-3.80859 303.668-4.08203 304.436-4.35547 305.003-4.70052 305.367-5.11719 306.435-6.3151 307.678-8.13151 309.098-10.5664 310.517-13.0013 311.5-14.974 312.047-16.4844ZM336.318 0 317.724 0 317.724-2.57812C318.323-2.63021 318.941-2.68229 319.579-2.73438 320.217-2.78646 320.771-2.89042 321.24-3.04626 321.969-3.28023 322.509-3.68988 322.861-4.27521 323.212-4.86053 323.388-5.62134 323.388-6.55762L323.388-30.3186C323.388-31.1511 323.199-31.912 322.822-32.6013 322.444-33.2906 321.917-33.8692 321.24-34.3372 320.745-34.6493 320.029-34.9159 319.091-35.137 318.154-35.3582 317.294-35.4948 316.513-35.5469L316.513-38.125 330.107-38.9844 330.654-38.4375 330.654-7.03125C330.654-6.11979 330.828-5.36458 331.177-4.76562 331.526-4.16667 332.076-3.72396 332.826-3.4375 333.395-3.20312 333.951-3.01432 334.494-2.87109 335.037-2.72786 335.645-2.63021 336.318-2.57812ZM331.435-54.1797C331.435-52.6953 330.947-51.3997 329.97-50.293 328.994-49.1862 327.789-48.6328 326.357-48.6328 325.029-48.6328 323.876-49.1602 322.9-50.2148 321.923-51.2695 321.435-52.474 321.435-53.8281 321.435-55.2604 321.923-56.5104 322.9-57.5781 323.876-58.6458 325.029-59.1797 326.357-59.1797 327.841-59.1797 329.059-58.6784 330.009-57.6758 330.96-56.6732 331.435-55.5078 331.435-54.1797Z" fill="#FFFFFF" transform="translate(52.9119 106)"/></g></g><text fill="#FFFFFF" font-family="Georgia,Georgia_MSFontService,sans-serif" font-weight="400" font-size="80" transform="translate(591.66 270)">Manyu Li</text></g></svg>